<svg width="36" height="38" viewBox="0 0 36 38" fill="none" xmlns="http://www.w3.org/2000/svg">
<g filter="url(#filter0_d_1610_126)">
<path d="M18.0001 0.600006C14.679 0.600006 12.0001 3.27891 12.0001 6.60001V7.80001H7.25635L7.2001 8.32501L4.8001 29.325L4.7251 30H31.2751L31.2001 29.325L28.8001 8.32501L28.7438 7.80001H24.0001V6.60001C24.0001 3.27891 21.3212 0.600006 18.0001 0.600006ZM18.0001 1.80001C20.679 1.80001 22.8001 3.9211 22.8001 6.60001V7.80001H13.2001V6.60001C13.2001 3.9211 15.3212 1.80001 18.0001 1.80001ZM8.34385 9.00001H12.0001V10.3688C11.6415 10.5773 11.4001 10.957 11.4001 11.4C11.4001 12.0633 11.9368 12.6 12.6001 12.6C13.2634 12.6 13.8001 12.0633 13.8001 11.4C13.8001 10.957 13.5587 10.5773 13.2001 10.3688V9.00001H22.8001V10.3688C22.4415 10.5773 22.2001 10.957 22.2001 11.4C22.2001 12.0633 22.7368 12.6 23.4001 12.6C24.0634 12.6 24.6001 12.0633 24.6001 11.4C24.6001 10.957 24.3587 10.5773 24.0001 10.3688V9.00001H27.6563L29.9251 28.8H6.0751L8.34385 9.00001Z" fill="black"/>
</g>
<defs>
<filter id="filter0_d_1610_126" x="-1" y="0" width="38" height="38" filterUnits="userSpaceOnUse" color-interpolation-filters="sRGB">
<feFlood flood-opacity="0" result="BackgroundImageFix"/>
<feColorMatrix in="SourceAlpha" type="matrix" values="0 0 0 0 0 0 0 0 0 0 0 0 0 0 0 0 0 0 127 0" result="hardAlpha"/>
<feOffset dy="4"/>
<feGaussianBlur stdDeviation="2"/>
<feComposite in2="hardAlpha" operator="out"/>
<feColorMatrix type="matrix" values="0 0 0 0 0 0 0 0 0 0 0 0 0 0 0 0 0 0 0.25 0"/>
<feBlend mode="normal" in2="BackgroundImageFix" result="effect1_dropShadow_1610_126"/>
<feBlend mode="normal" in="SourceGraphic" in2="effect1_dropShadow_1610_126" result="shape"/>
</filter>
</defs>
</svg>
